<svg width="749" height="623" viewBox="0 0 749 623" fill="none" xmlns="http://www.w3.org/2000/svg">
<g clip-path="url(#clip0_166_333)">
<path d="M679.265 606.387C675.549 611.395 670.942 615.677 665.675 619.017C664.555 619.727 663.405 620.397 662.235 621.017H634.706C635.035 620.357 635.355 619.687 635.666 619.017C644.201 601.004 646.878 580.77 643.319 561.158C639.761 541.546 630.145 523.542 615.825 509.677C632.465 514.817 647.845 524.837 657.905 539.047C662.793 545.967 666.27 553.782 668.135 562.047C669.798 545.519 667.156 528.841 660.465 513.637C673.975 524.627 684.496 539.677 688.505 556.617C692.515 573.567 689.605 592.377 679.265 606.387Z" fill="#E6E6E6"/>
<path d="M113.391 17.4551C112.561 17.4566 111.766 17.7872 111.18 18.3743C110.594 18.9615 110.265 19.7572 110.265 20.5869C110.265 21.4165 110.594 22.2122 111.18 22.7994C111.766 23.3865 112.561 23.7171 113.391 23.7186H342.047C342.877 23.7171 343.672 23.3865 344.258 22.7994C344.844 22.2122 345.173 21.4165 345.173 20.5869C345.173 19.7572 344.844 18.9615 344.258 18.3743C343.672 17.7872 342.877 17.4566 342.047 17.4551H113.391Z" fill="#656477"/>
<path d="M113.391 36.2456C112.56 36.2439 111.763 36.5721 111.175 37.1582C110.586 37.7443 110.254 38.5402 110.253 39.3708C110.251 40.2014 110.579 40.9987 111.165 41.5872C111.751 42.1758 112.547 42.5074 113.378 42.5092H257.937C258.348 42.5099 258.756 42.4294 259.137 42.2724C259.517 42.1153 259.863 41.8848 260.155 41.5939C260.446 41.303 260.677 40.9575 260.835 40.5772C260.993 40.1968 261.074 39.7891 261.074 39.3774C261.074 38.9656 260.993 38.5579 260.835 38.1776C260.677 37.7973 260.446 37.4518 260.155 37.1609C259.863 36.87 259.517 36.6395 259.137 36.4824C258.756 36.3253 258.348 36.2449 257.937 36.2456H113.391Z" fill="#656477"/>
<path d="M113.391 130.455C112.561 130.457 111.766 130.787 111.18 131.374C110.594 131.961 110.265 132.757 110.265 133.587C110.265 134.416 110.594 135.212 111.18 135.799C111.766 136.387 112.561 136.717 113.391 136.719H342.047C342.877 136.717 343.672 136.387 344.258 135.799C344.844 135.212 345.173 134.416 345.173 133.587C345.173 132.757 344.844 131.961 344.258 131.374C343.672 130.787 342.877 130.457 342.047 130.455H113.391Z" fill="#E4E4E4"/>
<path d="M113.391 149.246C112.56 149.244 111.763 149.572 111.175 150.158C110.586 150.744 110.254 151.54 110.253 152.371C110.251 153.201 110.579 153.999 111.165 154.587C111.751 155.176 112.547 155.507 113.378 155.509H257.937C258.348 155.51 258.756 155.429 259.137 155.272C259.517 155.115 259.863 154.885 260.155 154.594C260.446 154.303 260.677 153.957 260.835 153.577C260.993 153.197 261.074 152.789 261.074 152.377C261.074 151.966 260.993 151.558 260.835 151.178C260.677 150.797 260.446 150.452 260.155 150.161C259.863 149.87 259.517 149.639 259.137 149.482C258.756 149.325 258.348 149.245 257.937 149.246H113.391Z" fill="#E4E4E4"/>
<path d="M113.391 243.455C112.561 243.457 111.766 243.787 111.18 244.374C110.594 244.961 110.265 245.757 110.265 246.587C110.265 247.416 110.594 248.212 111.18 248.799C111.766 249.387 112.561 249.717 113.391 249.719H342.047C342.877 249.717 343.672 249.387 344.258 248.799C344.844 248.212 345.173 247.416 345.173 246.587C345.173 245.757 344.844 244.961 344.258 244.374C343.672 243.787 342.877 243.457 342.047 243.455H113.391Z" fill="#E4E4E4"/>
<path d="M113.391 262.246C112.56 262.244 111.763 262.573 111.175 263.159C110.586 263.745 110.254 264.541 110.253 265.371C110.251 266.202 110.579 266.999 111.165 267.588C111.751 268.176 112.547 268.508 113.378 268.51H257.937C258.348 268.51 258.756 268.43 259.137 268.273C259.517 268.116 259.863 267.885 260.155 267.594C260.446 267.303 260.677 266.958 260.835 266.578C260.993 266.197 261.074 265.79 261.074 265.378C261.074 264.966 260.993 264.558 260.835 264.178C260.677 263.798 260.446 263.452 260.155 263.161C259.863 262.871 259.517 262.64 259.137 262.483C258.756 262.326 258.348 262.245 257.937 262.246H113.391Z" fill="#E4E4E4"/>
<path d="M29.4933 39.4996H29.4825C29.224 39.4981 28.9688 39.4415 28.7339 39.3336C28.4989 39.2258 28.2897 39.0691 28.12 38.8741L18.4203 27.7369C18.2627 27.5566 18.1422 27.3471 18.0657 27.1202C17.9892 26.8933 17.9582 26.6536 17.9744 26.4147C17.9907 26.1758 18.0539 25.9425 18.1604 25.728C18.2669 25.5136 18.4147 25.3223 18.5952 25.165C18.7758 25.0078 18.9856 24.8877 19.2126 24.8116C19.4396 24.7355 19.6794 24.7049 19.9183 24.7216C20.1571 24.7383 20.3903 24.802 20.6046 24.9089C20.8188 25.0158 21.0098 25.164 21.1668 25.3448L29.5093 34.9239L54.5538 6.82673C54.7127 6.64773 54.9054 6.50183 55.1208 6.39737C55.3361 6.2929 55.57 6.23193 55.8089 6.21795C56.0479 6.20397 56.2872 6.23725 56.5133 6.31588C56.7394 6.39451 56.9478 6.51696 57.1265 6.6762C57.3052 6.83545 57.4507 7.02836 57.5548 7.24392C57.6588 7.45948 57.7194 7.69344 57.7329 7.93241C57.7465 8.17139 57.7127 8.41071 57.6337 8.63664C57.5546 8.86257 57.4318 9.07069 57.2722 9.2491L30.8524 38.8902C30.6816 39.0818 30.4722 39.2352 30.238 39.3402C30.0038 39.4452 29.75 39.4995 29.4933 39.4996Z" fill="#656477"/>
<path d="M29.7151 58.9824C22.0238 58.9824 14.6476 55.9271 9.209 50.4885C3.77044 45.05 0.715088 37.6737 0.715088 29.9824C0.715088 22.2911 3.77044 14.9149 9.209 9.47633C14.6476 4.03778 22.0238 0.982422 29.7151 0.982422C29.9803 0.982422 30.2347 1.08778 30.4222 1.27531C30.6097 1.46285 30.7151 1.71721 30.7151 1.98242C30.7151 2.24764 30.6097 2.50199 30.4222 2.68953C30.2347 2.87707 29.9803 2.98242 29.7151 2.98242C24.375 2.98252 19.1549 4.56612 14.7148 7.53297C10.2748 10.4998 6.81418 14.7167 4.77069 19.6503C2.7272 24.5839 2.19257 30.0127 3.23442 35.2502C4.27628 40.4876 6.84782 45.2985 10.6239 49.0745C14.3999 52.8504 19.2108 55.4219 24.4483 56.4637C29.6858 57.5054 35.1145 56.9707 40.0481 54.9271C44.9817 52.8835 49.1985 49.4229 52.1653 44.9828C55.1321 40.5427 56.7156 35.3225 56.7156 29.9824C56.7156 29.7172 56.8209 29.4629 57.0085 29.2753C57.196 29.0878 57.4504 28.9824 57.7156 28.9824C57.9808 28.9824 58.2351 29.0878 58.4227 29.2753C58.6102 29.4629 58.7156 29.7172 58.7156 29.9824C58.7068 37.6711 55.6485 45.0423 50.2118 50.479C44.775 55.9157 37.4038 58.9738 29.7151 58.9824Z" fill="#3F3D56"/>
<path d="M450.493 404.017H450.483C450.224 404.015 449.969 403.959 449.734 403.851C449.499 403.743 449.29 403.586 449.12 403.391L439.42 392.254C439.263 392.074 439.142 391.864 439.066 391.637C438.989 391.41 438.958 391.171 438.974 390.932C438.991 390.693 439.054 390.459 439.16 390.245C439.267 390.031 439.415 389.839 439.595 389.682C439.776 389.525 439.986 389.405 440.213 389.329C440.44 389.252 440.679 389.222 440.918 389.239C441.157 389.255 441.39 389.319 441.605 389.426C441.819 389.533 442.01 389.681 442.167 389.862L450.509 399.441L475.554 371.344C475.713 371.165 475.906 371.02 476.121 370.916C476.336 370.812 476.57 370.751 476.808 370.737C477.047 370.724 477.286 370.757 477.512 370.836C477.738 370.914 477.946 371.037 478.124 371.196C478.303 371.355 478.448 371.547 478.552 371.763C478.656 371.978 478.717 372.212 478.731 372.45C478.744 372.689 478.711 372.928 478.632 373.154C478.554 373.38 478.431 373.588 478.272 373.766L451.852 403.407C451.682 403.599 451.472 403.752 451.238 403.857C451.004 403.962 450.75 404.017 450.493 404.017Z" fill="#656477"/>
<path d="M450.715 423.5C443.024 423.5 435.648 420.445 430.209 415.006C424.771 409.568 421.715 402.191 421.715 394.5C421.715 386.809 424.771 379.432 430.209 373.994C435.648 368.555 443.024 365.5 450.715 365.5C450.981 365.5 451.235 365.605 451.422 365.793C451.61 365.98 451.715 366.235 451.715 366.5C451.715 366.765 451.61 367.02 451.422 367.207C451.235 367.395 450.981 367.5 450.715 367.5C445.375 367.5 440.155 369.084 435.715 372.05C431.275 375.017 427.814 379.234 425.771 384.168C423.727 389.101 423.192 394.53 424.234 399.767C425.276 405.005 427.847 409.816 431.623 413.592C435.399 417.368 440.21 419.939 445.448 420.981C450.685 422.023 456.114 421.488 461.048 419.445C465.981 417.401 470.198 413.941 473.165 409.5C476.132 405.06 477.715 399.84 477.715 394.5C477.715 394.235 477.821 393.98 478.008 393.793C478.196 393.605 478.45 393.5 478.715 393.5C478.981 393.5 479.235 393.605 479.422 393.793C479.61 393.98 479.715 394.235 479.715 394.5C479.706 402.189 476.648 409.56 471.212 414.996C465.775 420.433 458.404 423.491 450.715 423.5Z" fill="#3F3D56"/>
<path d="M644.017 379.085C643.077 377.955 642.396 376.633 642.022 375.211C641.648 373.789 641.59 372.303 641.852 370.856C642.115 369.41 642.691 368.039 643.541 366.839C644.391 365.64 645.493 364.641 646.771 363.914L640.247 328.779L657.355 336L660.928 368.257C662.007 370.485 662.232 373.03 661.561 375.412C660.889 377.795 659.366 379.847 657.282 381.182C655.197 382.517 652.696 383.041 650.251 382.654C647.806 382.267 645.588 380.998 644.017 379.085Z" fill="#9E616A"/>
<path d="M485.414 379.085C486.354 377.955 487.035 376.633 487.409 375.211C487.783 373.789 487.841 372.303 487.579 370.856C487.316 369.41 486.74 368.039 485.89 366.839C485.04 365.64 483.938 364.641 482.66 363.914L489.184 328.779L472.076 336L468.503 368.257C467.424 370.485 467.198 373.03 467.87 375.412C468.542 377.795 470.065 379.847 472.149 381.182C474.234 382.517 476.735 383.041 479.18 382.654C481.625 382.267 483.843 380.998 485.414 379.085Z" fill="#9E616A"/>
<path d="M549.07 608.813H536.81L530.978 561.525H549.072L549.07 608.813Z" fill="#9E616A"/>
<path d="M552.197 620.697L512.666 620.696V620.196C512.666 616.115 514.287 612.202 517.173 609.316C520.058 606.431 523.972 604.81 528.052 604.81L552.197 604.811L552.197 620.697Z" fill="#171010"/>
<path d="M600.07 608.813H587.81L581.978 561.525H600.072L600.07 608.813Z" fill="#9E616A"/>
<path d="M603.197 620.697L563.666 620.696V620.196C563.666 616.115 565.287 612.202 568.173 609.316C571.058 606.431 574.972 604.81 579.052 604.81L603.197 604.811L603.197 620.697Z" fill="#171010"/>
<path d="M527.133 323.017L511.215 340.551L518.215 471.839L530.215 597.517H552.077L572.215 373.092L581.18 597.517H604.613L632.111 333.738L527.133 323.017Z" fill="#171010"/>
<path d="M628.215 170.517L585.715 144.017L579.715 129.017H539.983L535.715 143.017L491.715 170.017L509.215 246.517L511.215 340.517C511.215 340.517 579.215 381.517 632.215 335.517L610.715 226.017L628.215 170.517Z" fill="#E6E6E6"/>
<path d="M505.215 171.517L491.715 170.017C491.715 170.017 478.215 180.517 476.215 203.517C474.215 226.517 476.215 270.253 476.215 270.253L468.215 355.517L485.215 356.517L507.215 271.517L509.215 232.095L505.215 171.517Z" fill="#E6E6E6"/>
<path d="M614.215 171.517L627.715 170.017C627.715 170.017 641.215 180.517 643.215 203.517C645.215 226.517 653.215 270.253 653.215 270.253L661.215 355.517L644.215 356.517L622.215 271.517L610.215 232.095L614.215 171.517Z" fill="#E6E6E6"/>
<path d="M585.3 101.349C593.99 85.4531 588.148 65.5229 572.252 56.8335C556.356 48.1441 536.426 53.986 527.736 69.8817C519.047 85.7775 524.889 105.708 540.785 114.397C556.681 123.087 576.611 117.245 585.3 101.349Z" fill="#9E616A"/>
<path d="M593.989 86.2474C594.347 84.2202 593.927 82.1325 592.814 80.4009C593.887 78.6797 594.633 76.776 595.017 74.7848C595.91 68.8184 591.34 66.6326 588.395 62.1266C587.117 60.1716 587.696 59.3992 587.624 57.3217C587.502 54.5165 586.599 51.8011 585.017 49.4819C583.197 46.4659 581.255 43.3215 578.203 41.3615C571.79 37.2426 563.575 39.9805 556.226 38.2233C552.987 37.4487 549.963 35.7999 546.733 34.9739C543.503 34.1479 539.7 34.3622 537.828 36.7245C536.964 37.8151 536.618 39.2358 535.751 40.3246C534.028 42.4883 530.759 42.8496 528.099 43.9338C522.216 46.3315 519.188 52.6736 519.317 58.9349C519.355 60.247 519.5 61.5537 519.75 62.8423C518.729 65.2275 518.23 67.8037 518.288 70.3975C518.417 76.6589 521.207 82.8441 524.542 88.5521C525.007 86.7671 525.652 85.0339 526.467 83.3793C526.697 82.8036 527.081 82.302 527.576 81.9286C528.708 81.203 530.326 81.7462 531.758 81.8033C534.726 81.9214 537.086 79.8293 538.482 77.4903C539.878 75.1513 540.647 72.4561 542.247 70.2479C542.578 69.7003 543.027 69.2339 543.562 68.8828C544.097 68.5316 544.704 68.3048 545.338 68.2189C546.451 68.2662 547.534 68.601 548.48 69.1907C553.311 71.6663 558.301 74.3556 563.597 74.6892C565.41 74.6441 567.222 74.7988 569.001 75.1504C573.013 76.3079 575.396 80.5617 575.918 84.4287C576.44 88.2956 575.647 92.1064 575.961 95.9748C576.274 99.8433 578.131 104.175 581.966 105.883C582.37 106.115 582.848 106.178 583.298 106.059C583.593 105.899 583.826 105.647 583.963 105.341L591.145 92.981C592.511 90.9366 593.476 88.6516 593.989 86.2474Z" fill="#171010"/>
<path d="M748.035 621.017C748.034 621.282 747.929 621.536 747.741 621.723C747.554 621.91 747.3 622.016 747.035 622.017H366.035C365.77 622.017 365.516 621.911 365.328 621.724C365.141 621.536 365.035 621.282 365.035 621.017C365.035 620.751 365.141 620.497 365.328 620.31C365.516 620.122 365.77 620.017 366.035 620.017H747.035C747.3 620.017 747.554 620.123 747.742 620.31C747.929 620.498 748.034 620.752 748.035 621.017Z" fill="#CACACA"/>
<path d="M346.875 84.7988H1.87524V86.7988H346.875V84.7988Z" fill="#E4E4E4"/>
<path d="M346.875 196.799H1.87524V198.799H346.875V196.799Z" fill="#E4E4E4"/>
<path d="M346.875 308.799H1.87524V310.799H346.875V308.799Z" fill="#E4E4E4"/>
</g>
<defs>
<clipPath id="clip0_166_333">
<rect width="747.32" height="621.034" fill="white" transform="translate(0.715088 0.982422)"/>
</clipPath>
</defs>
</svg>
