<svg width="774" height="539" viewBox="0 0 774 539" fill="none" xmlns="http://www.w3.org/2000/svg">
<g clip-path="url(#clip0_90_250)">
<path d="M154.613 538.24C239.673 538.24 308.628 533.001 308.628 526.538C308.628 520.076 239.673 514.837 154.613 514.837C69.5526 514.837 0.597656 520.076 0.597656 526.538C0.597656 533.001 69.5526 538.24 154.613 538.24Z" fill="#E6E6E6"/>
<path d="M118.324 119.613C145.127 108.208 178.511 115.434 211.114 120.449C211.418 114.376 215.095 106.985 211.243 102.748C206.563 97.6004 206.994 92.192 209.81 86.7523C217.011 72.8424 206.694 58.0414 196.276 45.7346C193.928 42.9669 190.96 40.7923 187.614 39.3874C184.268 37.9826 180.638 37.387 177.019 37.6491L157.72 39.028C153.024 39.3636 148.543 41.1258 144.875 44.0788C141.208 47.0319 138.529 51.035 137.198 55.5524C132.59 61.8216 130.124 68.0734 131.677 74.2927C124.775 79.0111 123.615 84.7066 126.717 91.1274C129.347 95.1701 129.319 99.1054 126.597 102.932C123.023 107.81 120.285 113.249 118.496 119.027L118.324 119.613Z" fill="#2F2E41"/>
<path d="M755.281 465.332H208.997C204.139 465.332 199.48 463.402 196.045 459.965C192.61 456.529 190.68 451.868 190.68 447.009C388.707 423.986 583.013 423.986 773.598 447.009C773.598 451.868 771.668 456.529 768.233 459.965C764.798 463.402 760.139 465.332 755.281 465.332Z" fill="#2F2E41"/>
<path d="M773.598 448.086L190.68 447.009L258.238 333.295L258.561 332.756V82.1454C258.561 79.1035 259.16 76.0914 260.323 73.281C261.487 70.4706 263.192 67.9171 265.342 65.7661C267.493 63.6152 270.045 61.909 272.855 60.7451C275.664 59.5811 278.675 58.9822 281.716 58.9824H679.329C682.37 58.9822 685.381 59.5811 688.19 60.7451C691 61.909 693.552 63.6152 695.702 65.7661C697.853 67.9171 699.558 70.4706 700.722 73.281C701.885 76.0914 702.484 79.1035 702.484 82.1454V334.481L773.598 448.086Z" fill="#3F3D56"/>
<path d="M281.188 75.1504C279.188 75.1526 277.271 75.9483 275.857 77.3627C274.443 78.7772 273.648 80.695 273.646 82.6953V311.2C273.648 313.2 274.443 315.118 275.857 316.532C277.271 317.947 279.188 318.742 281.188 318.745H683.089C685.089 318.742 687.006 317.946 688.42 316.532C689.834 315.118 690.629 313.2 690.632 311.2V82.6953C690.629 80.695 689.834 78.7773 688.42 77.3628C687.006 75.9484 685.089 75.1527 683.089 75.1504H281.188Z" fill="white"/>
<path d="M282.872 348.924C282.254 348.925 281.65 349.103 281.129 349.437C280.609 349.77 280.195 350.245 279.936 350.806L259.119 396.076C258.892 396.569 258.793 397.11 258.83 397.651C258.868 398.192 259.041 398.715 259.333 399.172C259.626 399.629 260.028 400.004 260.504 400.264C260.979 400.525 261.513 400.661 262.055 400.661H699.821C700.372 400.661 700.913 400.52 701.395 400.252C701.876 399.983 702.281 399.596 702.57 399.127C702.86 398.659 703.025 398.123 703.049 397.573C703.074 397.022 702.958 396.474 702.711 395.981L680.084 350.712C679.817 350.173 679.405 349.721 678.894 349.405C678.383 349.089 677.794 348.923 677.194 348.924H282.872Z" fill="#2F2E41"/>
<path d="M480.522 71.3779C483.2 71.3779 485.371 69.2063 485.371 66.5276C485.371 63.8488 483.2 61.6772 480.522 61.6772C477.845 61.6772 475.674 63.8488 475.674 66.5276C475.674 69.2063 477.845 71.3779 480.522 71.3779Z" fill="white"/>
<path d="M437.494 409.284C436.783 409.285 436.092 409.519 435.528 409.952C434.964 410.384 434.558 410.99 434.373 411.676L429.151 431.078C429.022 431.557 429.005 432.059 429.101 432.546C429.197 433.033 429.404 433.491 429.706 433.885C430.008 434.279 430.396 434.599 430.841 434.818C431.286 435.038 431.776 435.152 432.272 435.152H531.576C532.092 435.152 532.6 435.029 533.058 434.793C533.516 434.556 533.911 434.214 534.209 433.794C534.508 433.374 534.702 432.889 534.775 432.378C534.849 431.868 534.799 431.348 534.63 430.861L527.917 411.459C527.697 410.824 527.284 410.273 526.737 409.883C526.189 409.494 525.534 409.284 524.862 409.284H437.494Z" fill="#2F2E41"/>
<path d="M702.484 328.984V333.295H258.238L258.572 332.757V328.984H702.484Z" fill="#2F2E41"/>
<path d="M690.093 151.139C731.748 151.139 765.516 117.359 765.516 75.6893C765.516 34.0196 731.748 0.239746 690.093 0.239746C648.437 0.239746 614.669 34.0196 614.669 75.6893C614.669 117.359 648.437 151.139 690.093 151.139Z" fill="#171010"/>
<path d="M721.34 108.564H658.846C657.703 108.563 656.607 108.108 655.799 107.3C654.991 106.492 654.537 105.396 654.536 104.252V66.5277C654.537 65.3846 654.991 64.2887 655.799 63.4804C656.607 62.6722 657.703 62.2175 658.846 62.2163H721.34C722.482 62.2175 723.578 62.6722 724.386 63.4804C725.194 64.2887 725.648 65.3846 725.649 66.5277V104.252C725.648 105.396 725.194 106.492 724.386 107.3C723.578 108.108 722.482 108.563 721.34 108.564ZM658.846 66.5277V104.252H721.343L721.34 66.5277L658.846 66.5277Z" fill="white"/>
<path d="M709.488 66.5277H670.698V49.2821C670.698 36.7911 678.855 27.7251 690.093 27.7251C701.331 27.7251 709.488 36.7911 709.488 49.2821L709.488 66.5277ZM675.008 62.2163H705.178V49.2821C705.178 39.1283 698.975 32.0365 690.093 32.0365C681.211 32.0365 675.008 39.1283 675.008 49.2821L675.008 62.2163Z" fill="white"/>
<path d="M690.093 88.6233C692.473 88.6233 694.403 86.693 694.403 84.3119C694.403 81.9308 692.473 80.0005 690.093 80.0005C687.712 80.0005 685.783 81.9308 685.783 84.3119C685.783 86.693 687.712 88.6233 690.093 88.6233Z" fill="white"/>
<path d="M637.44 241.238H326.837C325.312 241.237 323.85 240.63 322.772 239.551C321.693 238.472 321.087 237.01 321.085 235.484V158.411C321.087 156.885 321.693 155.423 322.772 154.344C323.85 153.265 325.312 152.659 326.837 152.657H637.44C638.965 152.659 640.427 153.265 641.506 154.344C642.584 155.423 643.191 156.885 643.192 158.411V235.484C643.191 237.01 642.584 238.472 641.506 239.551C640.427 240.63 638.965 241.237 637.44 241.238ZM326.837 154.958C325.922 154.959 325.045 155.323 324.398 155.971C323.751 156.618 323.387 157.495 323.386 158.411V235.484C323.387 236.4 323.751 237.277 324.398 237.924C325.045 238.572 325.922 238.936 326.837 238.937H637.44C638.355 238.936 639.233 238.572 639.88 237.924C640.527 237.277 640.891 236.4 640.892 235.484V158.411C640.891 157.495 640.527 156.618 639.88 155.971C639.233 155.323 638.355 154.959 637.44 154.958L326.837 154.958Z" fill="#E6E6E6"/>
<path d="M375.098 217.428C388.038 217.428 398.528 206.935 398.528 193.99C398.528 181.045 388.038 170.552 375.098 170.552C362.158 170.552 351.668 181.045 351.668 193.99C351.668 206.935 362.158 217.428 375.098 217.428Z" fill="#E6E6E6"/>
<path d="M429.211 178.365C428.698 178.364 428.189 178.464 427.715 178.66C427.24 178.856 426.809 179.144 426.446 179.507C426.082 179.87 425.794 180.3 425.598 180.775C425.401 181.249 425.3 181.758 425.3 182.271C425.3 182.785 425.401 183.293 425.598 183.767C425.794 184.242 426.082 184.673 426.446 185.036C426.809 185.398 427.24 185.686 427.715 185.882C428.189 186.078 428.698 186.178 429.211 186.177H613.306C614.341 186.177 615.335 185.766 616.067 185.033C616.799 184.301 617.211 183.307 617.211 182.271C617.211 181.235 616.799 180.241 616.067 179.509C615.335 178.776 614.341 178.365 613.306 178.365H429.211Z" fill="#E6E6E6"/>
<path d="M429.211 201.803C428.175 201.803 427.182 202.214 426.45 202.947C425.718 203.679 425.306 204.673 425.306 205.709C425.306 206.745 425.718 207.739 426.45 208.471C427.182 209.204 428.175 209.615 429.211 209.615H508.428C509.463 209.615 510.456 209.204 511.189 208.471C511.921 207.739 512.333 206.745 512.333 205.709C512.333 204.673 511.921 203.679 511.189 202.947C510.456 202.214 509.463 201.803 508.428 201.803H429.211Z" fill="#E6E6E6"/>
<path d="M257.473 203.383L200.056 233.919L199.329 208.473C218.07 205.343 235.9 199.894 252.386 191.023L258.391 176.182C259.045 174.565 260.109 173.146 261.477 172.064C262.845 170.982 264.471 170.275 266.195 170.011C267.919 169.748 269.682 169.938 271.311 170.562C272.94 171.186 274.378 172.223 275.485 173.571C277.105 175.543 277.914 178.058 277.75 180.605C277.585 183.152 276.459 185.542 274.599 187.29L257.473 203.383Z" fill="#FFB8B8"/>
<path d="M117.18 379.688C116.761 378.151 116.672 376.543 116.919 374.969C117.165 373.396 117.743 371.892 118.612 370.558L131.225 351.194C134.208 346.614 138.786 343.306 144.069 341.912C149.353 340.517 154.966 341.136 159.82 343.648C154.519 352.674 155.258 360.592 161.651 367.473C151.727 372.319 142.555 378.574 134.419 386.044C132.934 387.057 131.228 387.7 129.444 387.92C127.66 388.14 125.849 387.93 124.163 387.308C122.476 386.687 120.962 385.67 119.748 384.345C118.533 383.019 117.652 381.423 117.18 379.688Z" fill="#2F2E41"/>
<path d="M260.089 354.37C258.18 357.552 255.486 360.19 252.264 362.031C249.043 363.871 245.403 364.853 241.694 364.881L157.901 365.516L154.267 344.431L191.334 333.525L160.082 309.533L194.241 269.545L256.286 327.393C259.913 330.774 262.269 335.298 262.961 340.208C263.653 345.118 262.639 350.118 260.089 354.37Z" fill="#2F2E41"/>
<path d="M144.819 498.566H125.195C107.576 377.752 89.6412 256.6 142.638 211.38L205.144 221.559L197.149 274.634L162.262 314.622L144.819 498.566Z" fill="#2F2E41"/>
<path d="M162.069 525.934C160.533 526.353 158.925 526.442 157.352 526.195C155.779 525.949 154.276 525.371 152.942 524.502L131.635 521.637C127.056 518.653 123.749 514.074 122.355 508.788C120.96 503.503 121.578 497.888 124.089 493.032C133.112 498.335 141.028 497.595 147.906 491.2C152.766 501.017 160.774 500.418 168.422 508.688C169.435 510.174 170.078 511.88 170.298 513.665C170.518 515.45 170.308 517.261 169.687 518.948C169.065 520.636 168.049 522.15 166.724 523.365C165.399 524.58 163.803 525.461 162.069 525.934Z" fill="#2F2E41"/>
<path d="M191.334 130.678L154.994 121.953C161.03 109.595 161.527 95.8434 158.628 81.2383L183.339 80.5112C184.114 98.6731 186.456 115.641 191.334 130.678Z" fill="#FFB8B8"/>
<path d="M201.322 243.45C174.868 261.483 156.176 244.067 141.912 217.197C143.894 200.755 140.684 181.078 134.741 159.698C132.097 150.268 133.084 140.189 137.506 131.451C141.929 122.714 149.465 115.952 158.628 112.501L189.881 125.588C216.418 147.227 221.641 170.665 211.685 195.385L201.322 243.45Z" fill="#171010"/>
<path d="M125.195 148.854L96.1231 164.122L147.726 194.658L154.906 212.376C155.386 213.558 155.619 214.826 155.593 216.102C155.566 217.377 155.28 218.634 154.752 219.796C154.224 220.957 153.465 221.999 152.521 222.858C151.578 223.716 150.469 224.374 149.263 224.79C147.892 225.262 146.431 225.411 144.993 225.225C143.555 225.038 142.18 224.521 140.975 223.714C139.77 222.907 138.768 221.832 138.048 220.573C137.328 219.314 136.909 217.906 136.823 216.458L136.097 204.11L70.5104 182.459C68.3007 181.729 66.2858 180.506 64.6185 178.883C62.9511 177.259 61.675 175.277 60.8868 173.087C59.7379 169.894 59.6794 166.411 60.7205 163.181C61.7616 159.952 63.8435 157.159 66.6405 155.24L119.381 119.045L125.195 148.854Z" fill="#FFB8B8"/>
<path d="M154.267 151.762C142.142 146.447 131.117 152.221 117.2 156.852L115.02 118.318C128.839 110.95 142.014 108.964 154.267 114.683L154.267 151.762Z" fill="#171010"/>
<path d="M168.771 99.5986C181.585 99.5986 191.973 89.2073 191.973 76.3889C191.973 63.5705 181.585 53.1792 168.771 53.1792C155.957 53.1792 145.57 63.5705 145.57 76.3889C145.57 89.2073 155.957 99.5986 168.771 99.5986Z" fill="#FFB8B8"/>
<path d="M196.528 73.46C173.556 75.7107 156.052 71.9524 144.865 61.2515V52.6338H194.579L196.528 73.46Z" fill="#2F2E41"/>
</g>
<defs>
<clipPath id="clip0_90_250">
<rect width="773" height="538" fill="white" transform="translate(0.597656 0.239746)"/>
</clipPath>
</defs>
</svg>
