<?xml version="1.0" encoding="UTF-8"?>
<!DOCTYPE svg PUBLIC "-//W3C//DTD SVG 1.1//EN" "http://www.w3.org/Graphics/SVG/1.1/DTD/svg11.dtd">
<!-- Creator: CorelDRAW 2019 (64-Bit) -->
<svg xmlns="http://www.w3.org/2000/svg" xml:space="preserve" width="10mm" height="10mm" version="1.1" style="shape-rendering:geometricPrecision; text-rendering:geometricPrecision; image-rendering:optimizeQuality; fill-rule:evenodd; clip-rule:evenodd"
viewBox="0 0 1000 1000"
 xmlns:xlink="http://www.w3.org/1999/xlink"
 xmlns:xodm="http://www.corel.com/coreldraw/odm/2003">
 <defs>
  <style type="text/css">
   <![CDATA[
    .fil0 {fill:#393185}
   ]]>
  </style>
 </defs>
 <g id="Layer_x0020_1">
  <metadata id="CorelCorpID_0Corel-Layer"/>
  <path class="fil0" d="M878.01 637.68c8.62,-33.45 17.16,-55.38 21.14,-95 3.61,-35.95 1.24,-72.06 -5.49,-106.64 -33.17,-170.27 -190.84,-305.54 -390.06,-291.15 1.09,17.92 39.51,49.93 36.45,137.31 -4.33,28.53 -11.16,51.7 -25.12,74.12 -9.17,14.71 -36.44,48.91 -47.5,55.26 42.54,-0.14 57.2,-10.92 105.51,2.81 30.67,8.72 58.94,24.57 77.75,41.8 71.56,65.51 101.33,171.54 54.83,260.26 -53.83,102.72 -176.05,131.98 -204.04,155.14 150.61,7.41 283.33,-58.06 351.66,-182.86 9.68,-17.68 15.67,-34.81 24.87,-51.05zm-610.7 -73.04c-68.84,31.58 -29.64,69.74 20.7,176.13 21.92,46.31 28.51,94.91 93.28,63.2 40.79,-19.96 80.64,-36.98 120.86,-57.44 30.75,-17.69 64.25,-44.62 76.91,-81.61 23.26,-68.01 -22.69,-178.77 -135.55,-169.77 -52.12,4.16 -126.16,46.53 -176.2,69.49zm63.17 -28.8c-1.28,0.94 -2.38,1.84 -3.26,2.7zm-46.12 -352.62c-51.05,8.03 -116.49,45.53 -168.13,68.75 -62.19,27.97 -12.9,82.19 20.29,156.98 6.78,15.26 16.37,37.94 24.89,52.96 10.25,18.08 31.38,28.15 56.51,17.03 35.73,-15.81 71.6,-33.9 107.67,-51 37.97,-17.99 67.45,-37.99 84.88,-73.71 20.56,-42.13 5.06,-93.08 -16.8,-124.42 -20.38,-29.23 -55.66,-55.02 -109.31,-46.59z"/>
 </g>
</svg>
