<?xml version="1.0" encoding="UTF-8"?>
<!DOCTYPE svg PUBLIC "-//W3C//DTD SVG 1.1//EN" "http://www.w3.org/Graphics/SVG/1.1/DTD/svg11.dtd">
<!-- Creator: CorelDRAW 2019 (64-Bit) -->
<svg xmlns="http://www.w3.org/2000/svg" xml:space="preserve" width="15mm" height="15mm" version="1.1" style="shape-rendering:geometricPrecision; text-rendering:geometricPrecision; image-rendering:optimizeQuality; fill-rule:evenodd; clip-rule:evenodd"
viewBox="0 0 1500 1500"
 xmlns:xlink="http://www.w3.org/1999/xlink"
 xmlns:xodm="http://www.corel.com/coreldraw/odm/2003">
 <defs>
  <style type="text/css">
   <![CDATA[
    .fil0 {fill:#6686CC}
   ]]>
  </style>
 </defs>
 <g id="Layer_x0020_1">
  <metadata id="CorelCorpID_0Corel-Layer"/>
  <path class="fil0" d="M1360.18 959.71c13.7,-53.18 27.27,-88.05 33.6,-151.05 5.75,-57.15 1.98,-114.56 -8.73,-169.54 -52.73,-270.71 -303.41,-485.77 -620.15,-462.89 1.74,28.48 62.82,79.38 57.96,218.29 -6.9,45.38 -17.75,82.21 -39.95,117.85 -14.57,23.39 -57.93,77.77 -75.52,87.86 67.63,-0.23 90.94,-17.36 167.75,4.47 48.76,13.86 93.71,39.06 123.63,66.45 113.77,104.16 161.09,272.75 87.17,413.8 -85.59,163.31 -279.91,209.82 -324.4,246.65 239.45,11.78 450.46,-92.31 559.09,-290.72 15.4,-28.12 24.93,-55.36 39.55,-81.17zm-970.96 -116.13c-109.44,50.21 -47.12,110.89 32.92,280.02 34.84,73.63 45.33,150.9 148.3,100.5 64.86,-31.75 128.21,-58.81 192.16,-91.33 48.89,-28.13 102.16,-70.95 122.27,-129.75 36.99,-108.13 -36.06,-284.24 -215.5,-269.92 -82.87,6.61 -200.58,73.97 -280.15,110.48zm100.43 -45.79c-2.02,1.49 -3.77,2.93 -5.18,4.29zm-73.32 -560.62c-81.16,12.75 -185.2,72.38 -267.3,109.3 -98.89,44.47 -20.52,130.68 32.25,249.58 10.77,24.27 26.03,60.32 39.57,84.2 16.3,28.75 49.89,44.76 89.85,27.08 56.8,-25.13 113.84,-53.9 171.18,-81.08 60.37,-28.61 107.24,-60.4 134.96,-117.2 32.68,-66.98 8.03,-147.98 -26.71,-197.81 -32.42,-46.48 -88.5,-87.48 -173.8,-74.07z"/>
 </g>
</svg>
